<?xml version="1.0" encoding="utf-8"?>
<!-- Generator: Adobe Illustrator 19.1.0, SVG Export Plug-In . SVG Version: 6.00 Build 0)  -->
<!DOCTYPE svg PUBLIC "-//W3C//DTD SVG 1.1//EN" "http://www.w3.org/Graphics/SVG/1.1/DTD/svg11.dtd">
<svg version="1.1" id="Layer_1" xmlns="http://www.w3.org/2000/svg" xmlns:xlink="http://www.w3.org/1999/xlink" x="0px" y="0px"
	 viewBox="0 0 88.7 132.3" enable-background="new 0 0 88.7 132.3" xml:space="preserve">
<g>
	<g id="XMLID_166_">
		<path id="XMLID_167_" fill="#FFFFFF" d="M18.2,18.1v23.6h13.6c1.4,0,2.5,1.1,2.5,2.5v5c0,1.4-1.1,2.5-2.5,2.5H18.2v23.8h13.6
			c1.4,0,2.5,1.1,2.5,2.5v5c0,1.4-1.1,2.5-2.5,2.5H13.2c-2.8,0-5-2.3-5-5V13.1c0-2.8,2.2-5,5-5h18.6c1.4,0,2.5,1.1,2.5,2.5v5
			c0,1.4-1.1,2.5-2.5,2.5H18.2z"/>
	</g>
	<path id="XMLID_163_" fill="#FFFFFF" d="M62.6,6.3C52.3,6.3,44,14.7,44,24.8v58.3c0,0.2,0,0.4,0,0.6v24c0,4.5-3.4,8.1-8,8.1
		c-4.5,0-8-3.7-8-8.1v-5.9c0-1.4-0.9-2.8-2.4-2.8h-5.1c-1.3,0-2.5,1.4-2.5,2.8v5.9c0,10,8.5,18.3,18.5,18.3
		c10.2,0,18.5-8.3,18.5-18.3V83.1V51h16v32.1c0,1.4,1.3,1.9,2.8,1.9h5.1c1.4,0,2.1-0.5,2.1-1.9V24.8C81,14.7,72.7,6.3,62.6,6.3z
		 M71,40H55V24.8c0-4.5,3.4-8.2,8.1-8.2c4.5,0,7.9,3.7,7.9,8.2V40z"/>
</g>
</svg>
